# xmcd
#
# Track frame offsets:
#	150
#	19266
#	35781
#	52094
#	73158
#	88956
#	105572
#	126685
#	140851
#	154558
#	169374
#	184860
#
# Disc length: 2702 seconds
#
# Revision: 1
# Processed by: cddbd v1.5.1PL2 Copyright (c) Steve Scherf et al.
# Submitted via: audiograbber 1.83.01
#
DISCID=be0a8c0c
DTITLE=Katie Melua - Piece by Piece
DYEAR=2005
DGENRE=
TTITLE0=Shy Boy
TTITLE1=Nine Million Bicycles
TTITLE2=Piece By Piece
TTITLE3=Half Way Up The Hindukush
TTITLE4=Blues In The Night
TTITLE5=Spider's Web
TTITLE6=Blue Shoes
TTITLE7=On The Road Again
TTITLE8=Thank You, Stars (New Version)
TTITLE9=Just Like Heaven
TTITLE10=I Cried For You
TTITLE11=I Do Believe In Love
EXTD=
EXTT0=
EXTT1=
EXTT2=
EXTT3=
EXTT4=
EXTT5=
EXTT6=
EXTT7=
EXTT8=
EXTT9=
EXTT10=
EXTT11=
PLAYORDER=
